<svg width="123" height="44" viewBox="0 0 123 44" fill="none" xmlns="http://www.w3.org/2000/svg">
<g clip-path="url(#clip0_472_142)">
<path d="M53 11.1H57.5V29.5H62V6.5H57.5C55.025 6.5 53 8.57 53 11.1Z" fill="#1B314F"/>
<path d="M67 29.5H72V20.1667C72 17.6 69.75 15.5 67 15.5V29.5Z" fill="#1B314F"/>
<path d="M77 15.5V29.5H81.6667V20.1667H86.3333V24.8333C86.3333 27.4 88.4333 29.5 91 29.5V20.1667C91 17.6 88.9 15.5 86.3333 15.5H77Z" fill="#1B314F"/>
<path d="M118.333 15.7H113.667V11.1C113.667 8.57 111.567 6.5 109 6.5V24.9H99.6667V20.3H104.333V15.7H99.6667C97.1 15.7 95 17.77 95 20.3V24.9C95 27.43 97.1 29.5 99.6667 29.5H113.667V20.3H118.333V24.9C118.333 27.43 120.433 29.5 123 29.5V20.3C123 17.77 120.9 15.7 118.333 15.7Z" fill="#1B314F"/>
<path d="M67 11.5H72C72 8.75 69.75 6.5 67 6.5V11.5Z" fill="#1B314F"/>
<path d="M60 37.5H58V34.5H59.9517V34.9928H58.5928V35.7385H59.8072V36.2314H58.5928V37.0072H60V37.5Z" fill="#2F7AEA"/>
<path d="M68.2928 34.5H68.9585L67.8675 35.9701L69 37.5H68.3344L67.4977 36.3729L66.6656 37.5H66L67.1326 35.9701L66.0509 34.5H66.7166L67.5116 35.5842L68.2928 34.5Z" fill="#2F7AEA"/>
<path d="M77.759 36.7894L78 37.1717C77.8873 37.2687 77.7249 37.3476 77.5129 37.4086C77.3043 37.4696 77.0838 37.5 76.8513 37.5C76.3043 37.5 75.8581 37.3629 75.5128 37.0887C75.1709 36.8144 75 36.4515 75 36C75 35.5679 75.1624 35.2092 75.4872 34.9239C75.8086 34.6413 76.2582 34.5 76.8359 34.5C77.294 34.5 77.6581 34.5984 77.9282 34.795L77.6462 35.1732C77.4035 35.0429 77.1334 34.9779 76.8359 34.9779C76.494 34.9779 76.2136 35.0706 75.9949 35.2562C75.7761 35.4418 75.6667 35.6897 75.6667 36C75.6667 36.3047 75.7812 36.5513 76.0103 36.7396C76.2428 36.928 76.5419 37.0221 76.9077 37.0221C77.2222 37.0221 77.506 36.9446 77.759 36.7894Z" fill="#2F7AEA"/>
<path d="M87 37.5H86.3521V36.2186H84.6531V37.5H84V34.5H84.6531V35.7257H86.3521V34.5H87V37.5Z" fill="#2F7AEA"/>
<path d="M93.5314 37.5H93L94.2685 34.5H94.7314L96 37.5H95.4385L95.1257 36.7351H93.8443L93.5314 37.5ZM94.9243 36.2436L94.4872 35.1795L94.0457 36.2436H94.9243Z" fill="#2F7AEA"/>
<path d="M106 34.5V37.5H105.508L103.577 35.4215V37.5H103V34.5H103.492L105.423 36.5872V34.5H106Z" fill="#2F7AEA"/>
<path d="M114.449 36.3657H113.641V35.8878H115V37.0928C114.856 37.2175 114.665 37.3172 114.426 37.392C114.187 37.464 113.96 37.5 113.746 37.5C113.205 37.5 112.777 37.3643 112.465 37.0928C112.154 36.8241 112 36.4599 112 36C112 35.5734 112.153 35.2174 112.46 34.9321C112.765 34.644 113.169 34.5 113.669 34.5C114.097 34.5 114.456 34.5984 114.746 34.795L114.497 35.2022C114.414 35.133 114.304 35.079 114.168 35.0402C114.03 34.9986 113.889 34.9779 113.741 34.9779C113.407 34.9779 113.138 35.0693 112.933 35.252C112.726 35.4321 112.623 35.6815 112.623 36C112.623 36.3075 112.726 36.5554 112.933 36.7438C113.138 36.9294 113.412 37.0221 113.756 37.0221C113.877 37.0221 114.008 37.0028 114.149 36.964C114.289 36.9224 114.389 36.8754 114.449 36.8227V36.3657Z" fill="#2F7AEA"/>
<path d="M123 37.5H121V34.5H122.952V34.9928H121.593V35.7385H122.807V36.2314H121.593V37.0072H123V37.5Z" fill="#2F7AEA"/>
<path d="M11.4525 23.8761L12.6821 14.9323L2 7.76983L11.7599 10.9614L14.0653 7.54714L22.4804 2.5L41.0394 12.3717L42 27.4388L33.7387 38.5351L27.2065 39.5L30.5879 33.5251V27.7729L28.1287 23.2823L25.6311 21.6866L21.7886 25.5091V29.5542L18.7916 32.2633L14.9875 32.7086L13.2969 33.6364L10.5303 32.7829L9.37752 28.7748L11.4525 25.9543V23.8761Z" fill="white"/>
<path d="M29 7.84878C26.863 7.39056 24.5243 7.51558 24.5243 7.51558C24.5243 7.51558 23.7581 11.1807 19 12.1387C19.0404 12.1387 25.2904 14.346 29 7.84878Z" fill="#94A6C3"/>
<path d="M29.8753 38.2712C32.2737 36.3644 34.0725 33.733 34.8969 30.7584C34.9344 30.6441 35.2717 30.4533 35.4965 30.3009C35.8713 30.072 36.246 29.8813 36.321 29.5762C36.4708 28.6991 36.5458 27.7839 36.5458 26.8687C36.5458 26.5254 36.2085 26.1822 35.8713 25.839C35.6089 25.6101 35.3466 25.3431 35.3466 25.1525C34.9719 21.6821 33.398 18.4407 30.8872 16.0763L30.6249 16.3432C33.0607 18.6695 34.6346 21.8347 34.9719 25.1907C35.0093 25.4957 35.3091 25.8008 35.6089 26.1059C35.8713 26.3348 36.171 26.678 36.171 26.8304C36.171 27.7076 36.0961 28.5847 35.9462 29.4618C35.9087 29.6144 35.5715 29.7669 35.3091 29.9195C34.9344 30.1101 34.5971 30.3009 34.5222 30.6059C33.6228 33.8474 31.5617 36.6695 28.8261 38.5C29.3132 37.4321 30.8496 33.9619 31.6741 32.2076L31.5243 26.5636L26.765 21.8729L24.0668 22.2542L21.1063 27.1355C21.1063 27.1355 22.4929 28.9279 20.5442 31.0254C18.633 33.0847 17.134 33.5423 17.134 33.5423L15.7474 32.7796C16.1596 32.2457 16.9841 31.4449 17.6211 30.911C18.7079 29.9958 19.7947 29.9195 19.7947 28.9279C19.8322 26.8687 17.6586 27.4406 17.6586 27.4406L16.8717 28.2034L16.5344 31.0254L14.8855 33.1228L14.6982 33.0847L12 32.4746C12 32.4746 13.6488 31.5974 13.9112 30.6059C14.1735 29.6526 13.3865 26.4872 13.349 26.2966C13.3865 26.3348 14.136 26.983 14.4733 28.0508C15.0729 26.3729 15.8598 24.7712 16.0847 24.6186C16.3095 24.4661 19.345 22.8262 19.345 22.8262L18.3332 25.5339L19.0826 25.1144L20.8814 20.6144C20.8814 20.6144 22.6427 19.7373 23.9543 19.7373C26.3152 19.6991 29.8004 16.7627 28.2265 11.5C28.6761 11.6907 36.4708 15.6568 37.82 23.4364C38.8318 29.4237 35.4965 35.0296 29.8753 38.2712Z" fill="#94A6C3"/>
<path d="M21.3136 9.20701C22.317 8.11608 21.9243 6.5 21.9243 6.5L19.0013 10.4999C18.9577 10.4999 20.0483 10.5403 21.3136 9.20701Z" fill="#1B314F"/>
<path d="M12.2864 28.8327L12.6432 27.5C12.6432 27.5 11.1714 29.4324 11.0376 29.6989C10.9039 29.9988 11.1268 30.5319 11.7067 30.4985C12.2864 30.4652 13 29.8322 13 29.3657C13 28.7661 12.2864 28.8327 12.2864 28.8327Z" fill="#1B314F"/>
<path d="M34.599 5.00059C34.599 5.00059 36.4972 5.07609 38.4714 5.30225C34.0295 1.83322 29.8153 0.815041 26.3984 0.815041C21.6906 0.815041 18.5015 2.7382 18.3116 2.85128L19.7923 0.513381C19.7923 0.513381 13.8696 -0.0521308 11.7815 6.16954C11.25 4.84982 10.7564 2.92666 10.7564 2.92666C10.7564 2.92666 7.68122 5.60391 9.12395 10.0534C5.59309 8.7714 0.543665 6.99913 0.35384 6.96144C0.0880766 6.92374 0.0121507 7.03682 0.0121507 7.03682C0.0121507 7.03682 -0.0637865 7.1499 0.164014 7.33848C0.581628 7.67784 8.55445 13.5226 10.3009 14.6537C9.92115 16.0112 9.92115 16.6523 10.3009 17.2933C10.8323 18.1606 10.8703 18.613 10.7944 19.2541C10.7185 19.8951 10.0351 25.4381 9.8832 26.1168C9.7314 26.7956 8.13675 29.2089 8.21277 29.9253C8.28867 30.6417 9.27575 33.696 10.149 34.0355C10.7944 34.2616 12.389 34.7519 13.452 34.7519C13.8316 34.7519 14.1733 34.6765 14.3252 34.5256C14.9706 33.96 15.1605 33.8469 15.616 33.8469C15.654 33.8469 15.6919 33.8469 15.73 33.8469C15.9198 33.8469 16.1476 33.8846 16.4134 33.8846C17.0208 33.8846 17.818 33.7715 18.3875 33.2436C19.2228 32.414 20.6655 31.2827 21.1211 30.7549C21.6906 30.0384 21.9943 29.058 21.8425 28.0776C21.7285 27.1727 22.2221 26.3808 22.7916 25.589C23.5129 24.6462 24.8417 22.9494 24.8417 22.9494C27.4613 24.9102 29.0938 27.8891 29.0938 31.2073C29.0938 37.0898 23.9306 41.8408 17.5524 41.8408C16.5652 41.8408 15.616 41.7277 14.6669 41.5015C17.5903 42.5196 20.0581 42.859 22.0702 42.859C26.3604 42.859 28.6383 41.313 28.6383 41.313C28.6383 41.313 27.841 42.3311 26.5502 43.5C26.5881 43.5 26.5881 43.5 26.5881 43.5C33.6878 42.5196 37.1426 36.7126 37.1426 36.7126C37.1426 36.7126 36.8768 38.5981 36.5352 39.8801C45.9886 32.8288 44.3941 24.0052 44.3561 23.7035C44.432 23.8167 45.3812 24.9478 45.8748 25.5512C47.3934 10.0157 34.599 5.00059 34.599 5.00059ZM20.0581 29.8122C19.9062 30.0007 19.2608 30.5663 18.8052 30.981C18.3496 31.3959 17.8561 31.8106 17.4763 32.1877C17.3245 32.3386 17.0208 32.414 16.5652 32.414C16.4134 32.414 16.2614 32.414 16.1476 32.414C16.0717 32.414 15.9957 32.414 15.9198 32.414C15.8439 32.414 15.8059 32.414 15.768 32.414C15.654 32.414 15.5401 32.414 15.4262 32.414C15.9957 31.6599 17.6662 29.9253 18.2357 29.5483C18.9191 29.0957 19.2608 28.6433 18.8432 27.8514C18.4255 27.0595 17.3245 27.2481 17.3245 27.2481C17.3245 27.2481 17.9699 26.9841 18.5394 26.9841C17.818 26.7956 16.9068 26.9841 16.4893 27.3989C16.0337 27.8137 16.1096 29.2843 15.9198 30.227C15.73 31.2073 15.0845 31.6976 14.0974 32.6025C13.5659 33.0927 13.1862 33.2436 12.8825 33.2436C12.2371 33.1305 11.4777 32.9419 10.9463 32.7533C10.5666 32.2632 9.99717 30.6417 9.84525 29.963C9.95911 29.5859 10.4148 28.794 10.6426 28.3416C11.0981 27.4743 11.3639 26.9841 11.4398 26.5317C11.5917 25.8906 12.0853 21.9312 12.2751 20.2722C12.7687 20.9132 13.452 21.9691 13.3002 22.6478C14.4011 21.1018 13.6039 19.5935 13.2242 18.9901C12.8825 18.3868 12.427 17.1802 12.8066 15.898C13.1862 14.616 14.5531 11.0715 14.5531 11.0715C14.5531 11.0715 15.0086 11.8634 15.654 11.7126C16.2994 11.5617 21.5007 3.79395 21.5007 3.79395C21.5007 3.79395 22.9055 6.84824 21.4248 9.07306C19.9062 11.2978 18.4255 11.7126 18.4255 11.7126C18.4255 11.7126 20.5136 12.0897 22.4499 10.6944C23.2471 12.5421 24.0065 14.4652 24.0445 14.7292C23.9306 14.9931 22.4119 18.613 22.2601 18.8393C22.1842 18.9146 21.6526 19.0655 21.273 19.1409C20.6276 19.3295 20.2478 19.4426 20.096 19.5558C19.8303 19.7819 18.6153 23.1002 18.0458 24.7217C17.3625 24.9102 16.6791 25.2873 16.1855 26.0414C16.4513 25.8528 17.2866 25.7398 17.894 25.6644C18.4255 25.6267 20.0581 26.494 20.4757 28.1153C20.4757 28.153 20.4757 28.153 20.4757 28.1907C20.5516 28.794 20.3618 29.3597 20.0581 29.8122ZM16.4893 30.2647C16.8309 29.7744 16.793 28.9449 16.8309 28.681C16.8689 28.417 16.9449 27.9268 17.2486 27.8514C17.5524 27.776 18.2737 27.8891 18.2737 28.417C18.2737 28.9072 17.7421 29.0203 17.3625 29.3597C17.0967 29.6236 16.5652 30.1893 16.4893 30.2647ZM31.6376 23.0625C32.0172 21.1395 32.0552 19.4803 31.9413 18.1229C33.422 20.0836 34.3332 22.4592 34.599 24.9102C34.6369 25.2118 34.9406 25.5135 35.2444 25.8151C35.5101 26.0414 35.8139 26.3431 35.8139 26.5317C35.8139 27.3989 35.7378 28.2661 35.586 29.1334C35.5481 29.2466 35.2064 29.4351 34.9406 29.5859C34.5609 29.7744 34.2192 29.963 34.1433 30.2647C33.308 33.1682 31.5236 35.7322 29.1319 37.5422C32.6626 33.8846 34.3711 27.8514 31.6376 23.0625ZM29.2458 37.8815C31.7135 35.9962 33.6118 33.3566 34.447 30.3777C34.485 30.2646 34.8267 30.0761 35.0545 29.9253C35.4341 29.7367 35.8139 29.5106 35.8898 29.2089C36.0416 28.3416 36.1176 27.4366 36.1176 26.5317C36.1176 26.1923 35.7759 25.8528 35.4341 25.5135C35.2444 25.2873 34.9406 25.0234 34.9406 24.8348C34.6369 22.0821 33.5359 19.4803 31.8275 17.331C31.0681 12.8061 28.0308 11.411 27.9549 11.3731C28.0308 11.4863 30.005 14.3144 28.6383 17.6326C27.2335 20.9886 23.6269 20.4608 23.3232 20.4984C23.0194 20.4984 21.8425 22.0068 20.3618 24.7971C20.1719 24.7217 19.3747 24.5331 18.4634 24.684C19.1469 22.7985 20.1719 20.1213 20.3618 19.8951C20.4377 19.8196 21.0072 19.6689 21.3868 19.5558C22.1083 19.3672 22.4499 19.2541 22.5638 19.1032C22.6397 18.9901 23.0193 18.1229 23.3991 17.2179C23.7407 17.2179 24.614 17.1425 24.6899 17.1047C24.7658 17.0293 25.4872 15.1816 25.4872 14.9554C25.4872 14.7669 24.0065 11.1093 23.437 9.71407C23.7028 9.41241 23.9686 9.03537 24.2343 8.62051C32.0172 9.4501 38.0918 16.0112 38.0918 23.9675C38.0918 30.0761 34.485 35.3929 29.2458 37.8815Z" fill="#1B314F"/>
<path d="M19.6122 17.7678C20.3893 16.8964 19.9803 15.2725 18.5489 14.9952C18.9169 14.1635 19.4486 12.5 19.4486 12.5C19.4486 12.5 15.2769 18.8371 14.9087 18.9559C14.5406 19.0748 14.1725 17.6885 14.1725 17.6885C13.3955 20.5799 15.4813 20.9759 15.7267 20.0649C16.8719 19.7877 18.835 18.5994 19.6122 17.7678Z" fill="#1B314F"/>
<path d="M16 18.5L18.191 15.5C18.191 15.5 19.4551 16.0056 18.823 16.8146C18.0225 17.7584 16 18.5 16 18.5Z" fill="#FFD923"/>
<path d="M40.8983 34.2314C40.3507 34.9752 39.7301 35.7561 39 36.5C43.7094 27.2769 39.2191 18.8347 39.0365 18.5C39.365 18.8347 39.6936 19.2067 39.9857 19.5414C43.6 23.6323 44.038 29.7686 40.8983 34.2314Z" fill="#D82122"/>
<path d="M45 22.5C43.2565 17.9908 40.7768 14.1523 35.3136 10.6866C30.0442 7.33254 24.3874 7.59342 24.0775 7.63067C24.0387 7.63067 24 7.63067 24 7.63067C24.1937 7.55617 24.3874 7.51892 24.5811 7.48166C25.7822 7.10903 27.332 6.8109 28.8818 6.62452C32.989 6.06551 37.1347 7.40716 39.9631 10.2766C40.0018 10.3139 40.0018 10.3139 40.0406 10.3511C43.2565 13.6306 44.9225 17.7299 45 22.5Z" fill="#D82122"/>
<path d="M34 3.52644C28.2431 2.41392 24.534 2.97012 21.8682 4.00332C21.791 3.68544 21.5205 3.04968 21.2887 2.53308C20.4772 3.52644 19.6273 4.71852 19.0864 5.47344C17.6182 6.50664 17 7.5 17 7.5C17.85 4.5198 20.3228 2.29464 23.3364 1.73844C24.1863 1.57944 25.1136 1.5 26.1182 1.5C28.7841 1.53972 31.45 2.2152 34 3.52644Z" fill="#D82122"/>
<path d="M13 11.5C8.81231 11.3379 10.2082 5.82433 10.2798 5.5C10.2798 5.54053 10.5661 9.83784 13 11.5Z" fill="#D82122"/>
<path d="M18 1.5C14.3416 3.5656 15.0733 8.5 15.0733 8.5C11.5775 3.48913 17.7154 1.61471 18 1.5Z" fill="#D82122"/>
<path d="M11.7142 11.4759C11.9245 11.6353 12.1349 11.9221 11.8895 12.3364C11.7492 12.5595 11.5389 12.5276 11.2233 12.4002C10.8027 12.2089 8.27866 10.8704 6 9.5C8.59415 10.3286 11.2233 11.221 11.6441 11.4122C11.6441 11.4122 11.6791 11.4441 11.7142 11.4759Z" fill="white"/>
</g>
<defs>
<clipPath id="clip0_472_142">
<rect width="123" height="43" fill="white" transform="translate(0 0.5)"/>
</clipPath>
</defs>
</svg>
