<svg width="251" height="44" viewBox="0 0 251 44" fill="none" xmlns="http://www.w3.org/2000/svg">
<g clip-path="url(#clip0_472_173)">
<path fill-rule="evenodd" clip-rule="evenodd" d="M19.0654 0.60904C14.1453 1.11104 9.64501 3.31151 6.0893 6.95365C2.08944 11.0507 0 16.2145 0 22.0027C0 27.9837 2.28353 33.3881 6.55463 37.5154C12.8909 43.6386 22.185 45.2214 30.1202 41.5287C32.6332 40.3593 35.5432 38.2512 36.1032 37.1945C36.3371 36.7532 36.3345 35.8451 36.0982 35.39C35.7438 34.7079 34.9073 34.2901 34.1092 34.3967C33.6372 34.4597 33.4018 34.6131 31.9051 35.8322C29.9115 37.4563 27.6689 38.5232 24.8763 39.1764C23.6594 39.4611 23.3746 39.4859 21.2824 39.4897C19.3007 39.4933 18.8634 39.4612 17.8634 39.2383C14.4472 38.4766 11.3253 36.7974 9.05464 34.5L8.29945 33.7359L12.7467 26.6278C15.1927 22.7183 17.2409 19.4726 17.2983 19.4149C17.3636 19.3493 17.4028 20.7589 17.4028 23.1795C17.4028 27.2658 17.4549 27.8488 17.9087 28.8366C18.4499 30.0149 19.2167 30.5399 20.3956 30.5395C21.2794 30.5393 21.9731 30.2178 22.7579 29.445C23.4533 28.7602 23.4712 28.7333 26.5464 23.7684C27.9937 21.4316 29.2345 19.4499 29.3037 19.3644C29.3987 19.2471 29.4451 19.9234 29.4932 22.1233C29.564 25.3514 29.6293 25.745 30.3308 27.1756C30.887 28.3094 31.9498 29.3729 33.0427 29.8893C34.0752 30.3772 34.9497 30.5423 36.0802 30.4629C39.0571 30.254 41.4591 28.0582 42.2349 24.8366C42.6398 23.1556 42.5087 19.5756 41.9521 17.1098C41.0851 13.2695 38.9956 9.52149 36.1325 6.67103C31.6326 2.19097 25.368 -0.0341056 19.0654 0.60904ZM23.8318 4.62484C27.7001 5.24073 30.9287 6.94979 33.7525 9.87661C36.8391 13.0756 38.5399 17.2682 38.6046 21.8372C38.6218 23.0566 38.5842 23.5216 38.4262 24.0442C37.8783 25.8558 36.4519 26.883 35.0569 26.4706C34.4208 26.2826 34.0238 25.9021 33.6767 25.1478C33.4333 24.6189 33.4198 24.4426 33.3541 20.8991C33.2913 17.5159 33.265 17.1395 33.0448 16.462C32.5775 15.0239 31.6239 14.189 30.3308 14.0856C29.6953 14.0349 29.5327 14.0663 28.9116 14.3601C27.4296 15.0611 27.0355 15.5574 23.7718 20.8328L21.3378 24.7673L21.2739 19.8812C21.2182 15.6112 21.1853 14.919 21.013 14.3913C20.5726 13.0427 19.7897 12.4019 18.5826 12.4019C17.8232 12.4019 17.3009 12.6397 16.6612 13.2764C16.3963 13.5402 14.0752 17.139 11.0693 21.9469C8.24281 26.4676 5.9022 30.1669 5.86795 30.1676C5.77007 30.1697 4.92908 28.1153 4.60353 27.079C4.04187 25.2905 3.84845 23.7314 3.91252 21.5061C4.01705 17.8744 4.89871 15.0907 6.88894 12.1093C7.89897 10.5962 10.0265 8.44719 11.4945 7.45709C13.5499 6.07093 15.9486 5.09009 18.2895 4.67869C19.7736 4.41793 22.3731 4.39265 23.8318 4.62484ZM64.8826 13.1093C61.5884 13.7359 59.0981 15.6654 57.6352 18.7245C56.2306 21.6614 56.4055 25.2338 58.0934 28.0911C59.7183 30.8416 62.676 32.6612 65.8872 32.886C68.2246 33.0495 70.4856 32.3584 72.5219 30.858C73.777 29.9331 74.0746 29.2107 73.6015 28.2377C73.3479 27.7162 72.7121 27.2997 72.1696 27.2997C71.6843 27.2997 71.1203 27.5552 70.5742 28.0223C69.9151 28.586 68.6642 29.155 67.6518 29.3517C65.214 29.8253 62.7224 28.7106 61.4724 26.587C61.3202 26.3284 61.0599 25.7249 60.8938 25.246C60.6297 24.4842 60.5923 24.2097 60.5944 23.0511C60.5965 21.9206 60.6399 21.5964 60.8907 20.8354C62.1937 16.8807 66.4422 15.4151 70.0952 17.6598C70.6162 17.9799 70.881 18.0724 71.2774 18.0724C72.541 18.0724 73.3934 16.751 72.8954 15.5643C72.5589 14.7626 70.8271 13.7336 69.0568 13.2836C67.8628 12.9801 65.9759 12.9013 64.8826 13.1093ZM92.278 13.1594C90.9683 13.7517 90.5382 15.3794 91.3675 16.6046C92.1754 17.7981 94.1731 17.7629 95.0205 16.5401C96.034 15.0778 94.9365 12.9585 93.1657 12.9585C92.9219 12.9585 92.5224 13.0489 92.278 13.1594ZM209.465 13.1211C207.487 13.495 205.812 14.3919 204.337 15.8669C202.361 17.8431 201.406 20.1477 201.406 22.9407C201.406 25.7733 202.368 28.0695 204.388 30.0586C206.909 32.5412 210.278 33.4659 213.649 32.6001C215.401 32.1501 217.887 30.6553 218.291 29.8087C218.784 28.7744 218.224 27.5529 217.16 27.341C216.59 27.2274 216.085 27.3944 215.41 27.9197C214.043 28.9832 212.757 29.4419 211.161 29.4355C210.323 29.4322 209.944 29.3737 209.308 29.1504C206.813 28.2738 205.252 25.9272 205.252 23.0511C205.252 19.4177 207.847 16.5953 211.187 16.5953C212.41 16.5953 214.063 17.125 215.087 17.8446C215.303 17.9958 215.585 18.0724 215.928 18.0724C217.325 18.0724 218.134 16.6599 217.475 15.3728C217.105 14.6511 215.421 13.7084 213.721 13.271C212.582 12.9781 210.593 12.908 209.465 13.1211ZM114.725 13.395C114.507 13.6121 114.504 13.7629 114.504 22.4092C114.504 31.0979 114.506 31.2085 114.735 31.6782C114.862 31.9398 115.118 32.2614 115.303 32.3928C115.659 32.6453 116.514 32.7826 116.989 32.6638C117.309 32.584 117.992 32.0205 118.193 31.6712C118.29 31.5033 118.343 30.152 118.383 26.8502L118.439 22.2625L120.766 24.7823C123.36 27.5898 123.564 27.7385 124.291 27.3423C124.501 27.2279 125.689 26.0339 126.931 24.6892L129.191 22.2441L129.246 26.8411C129.3 31.3376 129.307 31.4465 129.545 31.8284C130.267 32.9832 132.008 32.9969 132.795 31.8541L133.07 31.4543L133.102 22.673C133.119 17.8432 133.107 13.7861 133.075 13.6574C132.996 13.3347 132.422 13.1062 132.08 13.2613C131.937 13.3262 130.095 15.3136 127.987 17.6777C125.879 20.0418 124.075 22.0068 123.977 22.0442C123.879 22.0816 123.704 22.0617 123.588 22C123.472 21.9384 121.684 19.9866 119.614 17.663C117.544 15.3393 115.719 13.3787 115.56 13.3062C115.154 13.1221 114.981 13.1406 114.725 13.395ZM164.498 13.3431C163.988 13.5713 163.739 13.8072 163.486 14.3011C163.285 14.6921 163.276 15.0802 163.278 22.9639C163.28 30.7741 163.292 31.2416 163.487 31.6696C163.768 32.2856 164.277 32.6249 165.011 32.6854C165.729 32.7448 166.161 32.5826 166.595 32.0895C167.079 31.5406 167.154 31.0971 167.155 28.7559L167.155 26.6257L169.566 29.415C170.892 30.9491 172.146 32.3174 172.354 32.4557C173.479 33.2066 175.136 32.2259 175.136 30.8092C175.136 30.1891 175.054 30.0667 172.977 27.576C171.965 26.3637 171.389 25.5867 171.441 25.5027C171.486 25.4289 172.248 24.5826 173.135 23.622C174.022 22.6615 174.816 21.7477 174.899 21.5914C175.28 20.8743 174.815 19.5942 174.027 19.1885C173.543 18.9392 172.798 18.9778 172.354 19.2751C172.146 19.4136 170.905 20.7062 169.594 22.1476L167.211 24.7682L167.155 19.661C167.1 14.5692 167.099 14.5525 166.845 14.1455C166.353 13.3585 165.282 12.9924 164.498 13.3431ZM193.786 13.2976C193.258 13.4496 192.704 14.0556 192.555 14.6452C192.485 14.9222 192.428 15.9633 192.428 16.9628V18.7775L191.656 18.8209C190.801 18.8691 190.447 19.0557 190.017 19.6841C189.674 20.1861 189.683 20.9019 190.041 21.5096C190.386 22.0957 190.876 22.3338 191.737 22.3338H192.397L192.458 25.6168C192.51 28.4426 192.549 29.018 192.744 29.7487C193.017 30.7751 193.203 31.1489 193.73 31.729C194.505 32.5831 195.598 32.9278 197.531 32.9278C198.462 32.9278 198.652 32.8949 198.977 32.6768C199.805 32.121 200.076 31.2154 199.66 30.3918C199.363 29.8027 198.835 29.5068 198.081 29.5068C197.167 29.5068 196.762 29.3353 196.549 28.8574C196.404 28.531 196.364 27.9014 196.329 25.3961L196.287 22.3338H197.306C198.915 22.3338 199.524 21.8977 199.609 20.6856C199.645 20.1786 199.607 20.0058 199.393 19.6954C198.903 18.9837 198.627 18.8617 197.415 18.8198L196.32 18.7821L196.286 16.6038L196.252 14.4255L195.932 14.0086C195.591 13.5631 194.877 13.1743 194.423 13.1867C194.271 13.1909 193.984 13.2408 193.786 13.2976ZM80.5487 18.9746C77.1235 19.7397 74.7441 22.8215 74.9733 26.1962C75.0998 28.0593 75.7292 29.4254 77.0879 30.7866C78.833 32.5347 81.1006 33.2433 83.4113 32.7625C85.3258 32.3641 87.2045 30.884 88.106 29.0641C89.207 26.841 89.1419 24.2944 87.9312 22.2253C87.11 20.8218 85.7069 19.699 84.0515 19.1206C83.187 18.8184 81.5529 18.7503 80.5487 18.9746ZM104.436 18.9205C103.796 19.0459 102.85 19.4862 102.201 19.9605C101.581 20.413 101.535 20.4237 101.535 20.1136C101.535 19.9852 101.341 19.6872 101.104 19.4515C100.714 19.063 100.62 19.0231 100.094 19.0231C99.5673 19.0231 99.4732 19.063 99.0829 19.4515L98.6526 19.88V25.6702V31.4605L98.9047 31.8328C99.0432 32.0377 99.3301 32.3225 99.542 32.4658C99.8658 32.6848 100.034 32.7199 100.597 32.6853C101.396 32.6364 101.877 32.3438 102.202 31.709C102.405 31.3137 102.421 31.052 102.421 28.2571C102.421 26.5939 102.472 24.9674 102.534 24.6425C102.688 23.8333 103.039 23.1536 103.472 22.8243C104.303 22.1935 105.922 22.2297 106.684 22.8961C107.412 23.5323 107.447 23.7388 107.514 27.8604L107.576 31.5661L107.886 31.9712C108.294 32.5035 108.714 32.7071 109.405 32.7071C110.116 32.7071 110.539 32.4913 110.959 31.9141L111.289 31.4601L111.287 27.5866C111.286 23.2337 111.238 22.8434 110.543 21.5273C109.584 19.7106 107.898 18.777 105.643 18.8145C105.243 18.8212 104.7 18.8688 104.436 18.9205ZM140.472 18.9618C138.724 19.3588 137.097 20.6588 136.253 22.3338C135.689 23.4529 135.457 24.4651 135.457 25.8099C135.457 27.1731 135.689 28.1631 136.296 29.386C137.175 31.159 138.624 32.3556 140.397 32.7719C142.263 33.2099 144.854 32.5516 145.93 31.3664C146.142 31.1327 146.341 30.9414 146.371 30.9414C146.402 30.9414 146.427 31.0928 146.427 31.278C146.427 32.0638 147.06 32.7071 147.833 32.7071C148.517 32.7071 148.953 32.4503 149.205 31.8997C149.402 31.4657 149.415 31.1041 149.415 25.8651C149.415 20.6261 149.402 20.2645 149.205 19.8305C148.953 19.2799 148.517 19.0231 147.833 19.0231C147.06 19.0231 146.427 19.6664 146.427 20.4522C146.427 20.8624 146.325 20.8749 145.979 20.5075C144.758 19.214 142.345 18.5367 140.472 18.9618ZM158.56 18.9564C157.812 19.1371 157.059 19.5106 156.408 20.0232L155.871 20.4453L155.801 20.0737C155.758 19.8442 155.583 19.5724 155.343 19.3626C154.664 18.7689 153.597 18.9441 153.121 19.7278C152.925 20.0492 152.909 20.4051 152.877 25.203C152.858 28.0253 152.874 30.5927 152.912 30.9083C152.992 31.5726 153.31 32.0963 153.856 32.4658C154.368 32.812 155.397 32.7751 155.938 32.3911C156.662 31.878 156.674 31.8096 156.736 27.9067C156.791 24.4113 156.794 24.3698 157.068 23.8292C157.221 23.5288 157.52 23.1461 157.733 22.9787C158.188 22.6218 159.206 22.3338 160.013 22.3338C161.867 22.3338 162.461 19.8327 160.798 19.031C160.257 18.7705 159.441 18.7433 158.56 18.9564ZM180.939 18.9156C177.688 19.4995 175.796 22.113 175.803 26.0128C175.805 27.4324 176.021 28.4573 176.539 29.5068C177.301 31.0512 178.757 32.1659 180.678 32.6751C181.585 32.9154 184.207 32.9425 185.112 32.7208C186.024 32.4975 187.062 31.9563 187.497 31.477C187.839 31.1001 187.883 30.9818 187.883 30.4483C187.883 29.932 187.834 29.7899 187.541 29.457C187.331 29.2189 187.025 29.022 186.75 28.9483C186.286 28.8239 186.271 28.827 184.903 29.3354C184.636 29.4347 184.044 29.5631 183.588 29.6206C181.735 29.8545 180.144 29.1223 179.796 27.8756C179.558 27.0202 179.202 27.0928 183.81 27.0565C187.587 27.0266 187.964 27.0067 188.236 26.8231C188.798 26.4435 188.938 26.1087 188.916 25.1986C188.847 22.2551 187.189 19.9448 184.558 19.1234C183.727 18.8642 181.831 18.7553 180.939 18.9156ZM224.684 18.9753C222.373 19.4735 220.448 21.4495 219.852 23.9339C219.59 25.0265 219.614 26.7839 219.905 27.8846C220.697 30.8735 223.148 32.9278 225.923 32.9278C227.395 32.9278 229.235 32.2655 230.069 31.4352C230.554 30.9519 230.67 30.9668 230.67 31.5127C230.67 31.8384 230.988 32.3198 231.339 32.5265C231.508 32.6259 231.881 32.7071 232.169 32.7071C232.628 32.7071 232.743 32.6551 233.121 32.2787L233.552 31.8502V25.8651V19.88L233.121 19.4515C232.743 19.0751 232.628 19.0231 232.169 19.0231C231.281 19.0231 230.77 19.4984 230.618 20.4664L230.556 20.8614L230.034 20.3847C228.612 19.0845 226.616 18.5587 224.684 18.9753ZM243.084 18.9753C242.21 19.1638 241.19 19.6492 240.585 20.1647L240.136 20.5472L239.941 20.0003C239.614 19.0832 238.624 18.7372 237.785 19.2467C237.076 19.6767 237.099 19.3716 237.101 28.648C237.104 36.604 237.115 37.0908 237.309 37.5162C237.975 38.9761 240.037 38.9875 240.743 37.5351C240.962 37.0844 240.978 36.8754 240.978 34.4581V31.8645L241.727 32.2275C243.232 32.9575 245.248 33.1085 246.706 32.6004C247.521 32.3162 248.744 31.4915 249.235 30.8952C249.856 30.1403 250.391 29.1725 250.703 28.2377C250.965 27.4529 250.998 27.1834 251 25.8099C251.002 24.3999 250.975 24.1879 250.693 23.3832C249.508 20.0024 246.473 18.2447 243.084 18.9753ZM92.2401 19.2103C92.0358 19.3105 91.7365 19.5912 91.575 19.8342L91.2814 20.2759L91.2507 25.733C91.2204 31.0941 91.2239 31.1988 91.4541 31.6721C91.7547 32.2903 92.2231 32.6185 92.8968 32.6829C93.5861 32.7489 93.898 32.6655 94.3368 32.2979C95.1056 31.6539 95.1004 31.6974 95.1031 25.8892C95.1052 21.4254 95.0807 20.6122 94.9339 20.2626C94.7312 19.7796 94.3891 19.3928 93.9749 19.1782C93.5729 18.9699 92.697 18.9862 92.2401 19.2103ZM143.764 22.7469C146.594 24.1845 145.798 28.9942 142.655 29.447C140.883 29.7023 139.321 27.9998 139.321 25.8126C139.321 24.4661 139.87 23.3841 140.842 22.817C141.815 22.2493 142.74 22.2272 143.764 22.7469ZM227.868 22.6774C228.512 22.9872 229.281 23.8693 229.519 24.5717C229.758 25.2758 229.758 26.5046 229.519 27.163C229.097 28.327 228.193 29.1553 227.072 29.4051C225.816 29.6849 224.487 28.8969 223.844 27.4911C223.448 26.6241 223.403 25.3809 223.732 24.434C224.012 23.6291 224.885 22.7475 225.639 22.5086C226.309 22.296 227.219 22.3649 227.868 22.6774ZM245.339 22.6455C245.955 22.9171 246.521 23.4822 246.86 24.1662C247.089 24.6277 247.128 24.8672 247.129 25.8099C247.13 26.7691 247.093 26.9929 246.843 27.5204C246.249 28.7776 245.312 29.4405 244.14 29.4343C243.318 29.43 242.804 29.2198 242.151 28.6205C240.559 27.1593 240.61 24.2912 242.251 23.0455C243.183 22.3374 244.308 22.1917 245.339 22.6455ZM83.3147 22.754C85.8634 24.0498 85.4631 28.5212 82.7235 29.3564C81.2538 29.8044 79.5466 28.7638 79.0324 27.1064C78.2487 24.5805 79.748 22.3464 82.1366 22.4809C82.5808 22.5058 83.0327 22.6106 83.3147 22.754ZM183.602 22.6693C183.935 22.7932 184.342 23.0003 184.507 23.1296C184.793 23.3532 185.215 24.1076 185.221 24.4029C185.222 24.5096 184.596 24.5408 182.452 24.5408C179.396 24.5408 179.521 24.5741 179.833 23.8476C180.331 22.689 182.138 22.124 183.602 22.6693Z" fill="white"/>
</g>
<defs>
<clipPath id="clip0_472_173">
<rect width="251" height="43" fill="white" transform="translate(0 0.5)"/>
</clipPath>
</defs>
</svg>
