<svg width="262" height="44" viewBox="0 0 262 44" fill="none" xmlns="http://www.w3.org/2000/svg">
<g clip-path="url(#clip0_472_175)">
<path fill-rule="evenodd" clip-rule="evenodd" d="M16.814 4.04273C16.5757 4.09268 15.7606 4.58377 15.0025 5.1339C11.9824 7.32578 8.86232 8.33613 4.27433 8.60813C1.39054 8.77909 1.16784 8.82609 0.60223 9.38394L0 9.97766L0.051358 13.6742C0.188615 23.5792 1.12224 30.2127 2.87181 33.7181C4.26005 36.4994 5.58173 37.6146 11.1443 40.6985C12.8543 41.6464 14.7043 42.7451 15.2554 43.1397C16.8343 44.2709 17.5791 44.2822 19.1509 43.1994C19.8772 42.6993 22.1813 41.3386 24.2713 40.1759C27.1675 38.5645 28.4157 37.7234 29.52 36.6394C32.7796 33.4397 33.8749 28.9174 34.4201 16.4105C34.6897 10.219 34.619 9.56149 33.626 9.03769C33.3593 8.89693 31.7933 8.7019 30.1455 8.60404C25.6729 8.3384 22.8524 7.41115 19.5502 5.12005C18.103 4.11583 17.5335 3.89174 16.814 4.04273ZM21.7629 10.8958C24.19 11.8188 25.8037 12.2184 28.3591 12.5296L30.4893 12.7894L30.487 14.1718C30.4829 16.7445 30.0264 23.2593 29.6662 25.885C29.2761 28.7295 28.5035 31.3019 27.6293 32.6673C26.7829 33.9889 25.5407 34.9194 22.0469 36.8483C20.2938 37.8164 18.4966 38.8218 18.0533 39.0829L17.2472 39.5574L14.7139 38.0914C13.3206 37.2852 11.5071 36.2603 10.6837 35.8137C6.84329 33.7312 5.64598 31.5784 4.81115 25.2559C4.54216 23.2189 4.01179 15.394 4.00649 13.3856C4.00511 12.8221 4.06798 12.7984 6.27953 12.5262C9.93804 12.0762 13.7366 10.8018 16.0888 9.23545L17.2304 8.47531L18.5873 9.33989C19.3337 9.81532 20.7627 10.5155 21.7629 10.8958ZM201.37 23.047V34.7398H203.788H206.206V23.047V11.3542H203.788H201.37V23.047ZM209.025 22.9902L209.085 34.6262L211.561 34.6907L214.037 34.7552V23.0547V11.3542H211.501H208.966L209.025 22.9902ZM64.3431 14.7599V16.8033H67.9127H71.4823V25.7715V34.7398H74.0156H76.5489V25.7715V16.8033H80.1185H83.6881V14.7599V12.7165H74.0156H64.3431V14.7599ZM149.573 16.0583C150.202 17.904 151.858 22.8626 153.254 27.077L155.791 34.7398H158.527H161.263L163.754 27.3608C165.124 23.3024 166.301 19.9819 166.369 19.9819C166.438 19.9819 167.519 23.1235 168.771 26.9635C170.023 30.8035 171.14 34.1272 171.252 34.3495C171.433 34.7087 171.756 34.7468 174.14 34.69L176.824 34.6262L180.457 23.7281C182.454 17.7342 184.091 12.801 184.093 12.7655C184.096 12.7301 182.997 12.7301 181.652 12.7655L179.206 12.83L176.634 20.5495C175.22 24.7952 174.003 28.1668 173.93 28.042C173.856 27.9171 173.581 27.1508 173.318 26.3391C173.055 25.5275 171.947 22.1302 170.855 18.7899L168.871 12.7165H166.484H164.098L161.496 20.4237C160.065 24.6626 158.856 28.0937 158.81 28.0483C158.764 28.0029 157.617 24.5602 156.261 20.3978L153.796 12.83L151.113 12.7662L148.43 12.7024L149.573 16.0583ZM131.59 16.1222V18.1655H130.208C129.204 18.1655 128.826 18.2491 128.826 18.4709C128.826 18.7125 128.563 18.6884 127.562 18.3554C125.81 17.7723 122.977 17.4172 121.46 17.5907C116.956 18.1061 114.677 19.9442 114.706 23.0372C114.736 26.1107 116.246 27.2355 121.457 28.0644C124.273 28.5126 124.776 28.7503 124.867 29.6755C124.922 30.2352 124.812 30.4795 124.378 30.7599C123.066 31.6075 119.647 31.3904 117.147 30.3004C116.438 29.9916 115.834 29.7657 115.804 29.7986C115.774 29.8315 115.423 30.5717 115.024 31.4435C114.186 33.2731 114.183 33.2676 116.315 34.0539C119.456 35.2122 124.144 35.1557 126.692 33.9288C130.468 32.1092 130.753 27.4378 127.196 25.6487C126.719 25.4087 125.002 24.9521 123.382 24.6343C121.762 24.3164 120.193 23.8995 119.896 23.7077C119.177 23.2436 119.293 22.3348 120.15 21.7072C121.059 21.0417 123.964 21.0767 126.032 21.7778C126.838 22.0514 127.532 22.2419 127.573 22.2013C127.614 22.1606 127.912 21.568 128.235 20.8844L128.822 19.6413L128.824 20.7198L128.826 21.7983H130.208H131.59V25.9572C131.59 30.7163 131.832 31.9276 133.024 33.1366C134.24 34.3708 135.543 34.8358 137.808 34.8447C139.872 34.8526 142.079 34.2602 141.885 33.7503C141.83 33.6077 141.548 32.8449 141.257 32.0552C140.79 30.7878 140.671 30.6378 140.247 30.7772C139.982 30.8641 139.342 30.9829 138.823 31.0412C138.057 31.1273 137.756 31.0412 137.211 30.5796L136.541 30.012L136.469 25.9052L136.397 21.7983H138.6H140.802V19.9819V18.1655H138.614H136.426V16.1222V14.0788H134.008H131.59V16.1222ZM235.685 16.1222V18.1655H234.303H232.921V19.9706V21.7755L234.245 21.8437L235.569 21.9118L235.685 26.5662C235.798 31.1511 235.809 31.2365 236.439 32.2929C237.63 34.2907 240.392 35.2808 243.402 34.789C244.247 34.651 245.177 34.3838 245.469 34.1951L246 33.852L245.391 32.2455C244.867 30.8657 244.716 30.6568 244.321 30.7681C242.452 31.2937 241.239 31.0508 240.781 30.0593C240.62 29.7116 240.521 28.0245 240.521 25.6473V21.7983H242.709H244.896V19.9819V18.1655H242.709H240.521V16.1222V14.0788H238.103H235.685V16.1222ZM92.7001 17.7292C91.3342 17.9937 89.7728 18.7672 89.2293 19.4481L88.7811 20.0101L88.7102 18.9175L88.6395 17.825H86.3365H84.0335V26.2256V34.6262L86.5092 34.6907L88.9849 34.7552V29.9017C88.9849 25.2732 89.0096 25.0025 89.5153 24.0596C90.2101 22.7641 91.5778 22.0253 93.2816 22.0253H94.5121V19.7549C94.5121 17.2195 94.633 17.3545 92.7001 17.7292ZM188.358 17.6978C186.051 18.0679 183.671 18.9227 183.3 19.5151C183.224 19.6366 183.527 20.4523 183.974 21.3276L184.787 22.9192L185.536 22.4898C187.488 21.3716 190.459 21.0626 192.035 21.8137C192.838 22.1965 193.77 23.4702 193.77 24.1849C193.77 24.6765 193.692 24.6908 190.373 24.8043C187.667 24.8972 186.716 25.0189 185.695 25.4035C183.587 26.1977 182.481 27.7523 182.491 29.9078C182.505 32.9572 184.862 34.8297 188.704 34.8447C191.007 34.8535 192.544 34.3679 193.405 33.3593L193.974 32.6927L194.045 33.6595L194.116 34.6262L196.361 34.6912L198.607 34.7561V28.9996C198.607 22.115 198.469 21.4136 196.791 19.7594C196.085 19.0635 195.241 18.5154 194.397 18.2039C192.919 17.6588 190.084 17.4213 188.358 17.6978ZM222.737 17.7183C220.019 18.1699 217.709 19.8429 216.492 22.2414C214.749 25.6748 215.309 29.649 217.893 32.1969C220.745 35.0079 226.456 35.7583 230.165 33.8096C230.907 33.4197 231.69 32.9087 231.905 32.6737C232.279 32.2666 232.246 32.1914 231.189 31.0526C230.58 30.3957 230.006 29.7727 229.915 29.6681C229.823 29.5634 229.348 29.7362 228.859 30.0522C226.894 31.3212 224.154 31.3895 222.277 30.2161C221.361 29.6435 220.485 28.425 220.485 27.7239C220.485 27.5486 222.394 27.4744 226.906 27.4744H233.328L233.446 26.8636C233.62 25.97 233.211 23.4718 232.707 22.3504C232.159 21.1271 230.593 19.4388 229.333 18.7107C228.323 18.1272 225.699 17.476 224.515 17.5151C224.135 17.5276 223.335 17.6191 222.737 17.7183ZM95.8245 17.8554C95.5804 18.0963 95.641 27.1442 95.8987 28.9013C96.482 32.8796 98.9264 34.8783 103.148 34.8297C105.197 34.8063 106.247 34.4646 107.659 33.3616L108.56 32.6582V33.699V34.7398H110.866H113.172L113.111 26.2824L113.051 17.825H110.633H108.215L108.1 23.047C107.97 28.9159 107.877 29.2741 106.247 30.1775C105.214 30.7495 103.324 30.8128 102.335 30.3085C100.987 29.6215 100.857 29.0419 100.73 23.1605L100.615 17.825L98.3002 17.7607C97.0274 17.7255 95.9132 17.768 95.8245 17.8554ZM225.832 21.3542C226.852 21.6334 227.972 22.5139 228.438 23.4032C229.151 24.7623 229.187 24.7498 224.527 24.7498H220.279L220.554 23.9715C220.938 22.8901 221.724 22.0671 222.859 21.5592C223.96 21.066 224.615 21.0211 225.832 21.3542ZM193.77 28.5789C193.77 30.7606 191.583 32.1446 189.049 31.5666C187.898 31.3039 187.322 30.6246 187.322 29.5277C187.322 28.0004 188.334 27.549 191.87 27.5005L193.77 27.4744V28.5789Z" fill="white"/>
</g>
<defs>
<clipPath id="clip0_472_175">
<rect width="262" height="43" fill="white" transform="translate(0 0.5)"/>
</clipPath>
</defs>
</svg>
