<svg width="164" height="44" viewBox="0 0 164 44" fill="none" xmlns="http://www.w3.org/2000/svg">
<g clip-path="url(#clip0_472_180)">
<path fill-rule="evenodd" clip-rule="evenodd" d="M17.9711 0.667548C17.8101 0.758277 17.0803 1.18924 16.3492 1.62543C15.6183 2.06163 14.9549 2.41854 14.875 2.41854C14.7952 2.41854 14.1892 2.76749 13.5282 3.194C12.8671 3.6205 12.2551 3.96946 12.168 3.96946C12.081 3.96946 11.6835 4.18969 11.2844 4.45877C10.8856 4.72805 10.0526 5.22105 9.43331 5.55469C8.81405 5.88814 8.05794 6.33384 7.753 6.54495C7.21652 6.91621 7.21027 6.93966 7.55778 7.26962C7.75534 7.45709 8.48803 7.9117 9.18596 8.28005C9.88389 8.6482 10.7185 9.10436 11.0406 9.29377C11.6927 9.67684 11.3045 9.8331 14.7011 7.82136C15.2649 7.48733 16.2088 6.95343 16.799 6.63471C17.3892 6.316 18.0793 5.89318 18.3329 5.69505C18.8434 5.29627 18.926 5.3207 20.3929 6.30359C20.8638 6.6192 21.3253 6.87743 21.4184 6.87743C21.5117 6.87743 22.0262 7.16746 22.5615 7.52203C23.097 7.87642 24.1658 8.50222 24.9368 8.91244L26.3383 9.65843L26.9866 9.17415C27.3431 8.90798 28.1455 8.43572 28.7696 8.12476C29.3938 7.8138 30.0378 7.41328 30.2006 7.23453C30.4714 6.93753 30.4 6.84758 29.3741 6.196C28.7566 5.80381 28.1125 5.4343 27.9431 5.37517C27.7734 5.31604 27.503 5.15979 27.342 5.02796C27.1809 4.89613 26.5659 4.54485 25.9754 4.24746C25.3848 3.94988 24.6556 3.53869 24.3552 3.33339C23.8574 2.99335 22.3655 2.14209 20.1571 0.93799C19.301 0.471163 18.4967 0.37171 17.9711 0.667548ZM99.5854 6.20821C99.2532 6.90651 98.8619 7.80062 98.7159 8.19533C98.402 9.04426 97.4772 11.1754 96.4265 13.4719C96.0109 14.38 95.671 15.2003 95.671 15.2949C95.671 15.3895 95.4033 16.0296 95.0761 16.7172C94.7489 17.4049 94.264 18.5405 93.9985 19.241C93.733 19.9412 93.447 20.6085 93.3626 20.7235C93.2783 20.8386 93.1063 21.1725 92.9802 21.4658L92.751 21.9989H94.8811C96.923 21.9989 97.0165 21.9809 97.1363 21.5627C97.2053 21.3229 97.5346 20.4939 97.868 19.721L98.4746 18.3155H101.849C105.723 18.3155 105.292 18.0952 106.208 20.5449L106.715 21.902L108.807 21.957C111.264 22.0216 111.217 22.0861 110.221 20.0151C109.847 19.2402 109.329 18.0828 109.069 17.4431C108.129 15.1351 107.528 13.7344 106.876 12.3369C106.512 11.5542 106.213 10.8365 106.213 10.7417C106.213 10.6469 105.906 9.91724 105.53 9.12006C105.154 8.32309 104.847 7.57709 104.847 7.46252C104.847 7.34794 104.582 6.7332 104.258 6.09635L103.67 4.93878H101.93H100.189L99.5854 6.20821ZM138.399 5.20632C136.203 5.70765 134.177 7.34058 132.958 9.59154L132.276 10.8517V13.6627V16.4738L132.958 17.7339C134.628 20.8177 137.312 22.3731 140.963 22.3731C142.364 22.3731 144.307 22.0134 145.063 21.6145C146.114 21.06 147.796 19.6297 147.796 19.2912C147.796 19.065 145.677 16.9584 145.449 16.9584C145.33 16.9584 144.953 17.1666 144.611 17.421C142.581 18.9318 140.644 19.2051 138.864 18.2321C137.175 17.3087 136.278 15.7256 136.278 13.6672C136.278 11.4431 137.303 9.82418 139.304 8.88859C140.897 8.14357 142.08 8.31863 144.065 9.5929C144.729 10.0186 145.334 10.3612 145.411 10.354C145.724 10.3249 147.624 7.81729 147.565 7.51195C147.468 7.01314 145.677 5.74798 144.575 5.39979C143.283 4.99151 139.816 4.88295 138.399 5.20632ZM48.0359 13.5452V21.9989L53.4534 21.988C59.5638 21.9758 59.8256 21.9281 61.3612 20.5443C62.0978 19.8807 62.2577 19.5956 62.4762 18.5578C62.6806 17.5867 62.6839 17.1246 62.4927 16.2303C62.1872 14.8005 62.1849 14.7976 59.9564 13.1362C59.9093 13.1011 60.0616 12.9394 60.2951 12.7769C61.1049 12.2138 61.7017 10.9141 61.7017 9.71368C61.7017 7.86052 60.8913 6.51277 59.2614 5.65589C58.5345 5.27378 58.1183 5.23985 53.2582 5.16832L48.0359 5.09135V13.5452ZM66.5823 13.5658V21.9989H68.5346H70.4869V13.5658V5.13265H68.5346H66.5823V13.5658ZM75.1723 13.5658V21.9989H77.1245H79.0768V16.9578V11.9168L79.7193 12.6443C80.0726 13.0445 80.49 13.5588 80.6466 13.7872C80.8032 14.0155 81.7221 15.221 82.6885 16.466C85.3385 19.88 85.3666 19.9164 86.1721 20.9945L86.9225 21.9989H88.6612H90.3999V13.5658V5.13265H88.4509H86.502L86.4499 10.0277L86.3978 14.9228L85.56 13.8566C85.0993 13.2701 84.4404 12.4123 84.0959 11.9501C83.7513 11.4881 83.2023 10.7902 82.8757 10.3992C82.5491 10.0084 82.1537 9.50023 81.9972 9.27012C81.8406 9.04 81.0728 8.01484 80.2913 6.9922L78.8702 5.13265H77.0213H75.1723V13.5658ZM113.437 13.5658V21.9989H115.389H117.341V16.926V11.8534L117.921 12.4187C118.24 12.7296 118.504 13.084 118.507 13.206C118.51 13.3281 118.757 13.6879 119.056 14.0057C119.355 14.3234 119.84 14.9215 120.134 15.3348C120.875 16.3751 121.541 17.2512 122.905 18.9816C123.549 19.7985 124.324 20.8117 124.626 21.2329L125.176 21.9989H127.018H128.859V13.5658V5.13265H126.809H124.76V10.1035V15.0744L123.539 13.4454C122.868 12.5495 122.169 11.643 121.984 11.4309C121.597 10.9843 121.045 10.2555 119.311 7.8991C117.187 5.01187 117.364 5.13265 115.255 5.13265H113.437V13.5658ZM150.529 13.6627V22.1928H157.167H163.805V20.448V18.7032H159.217H154.629V17.0553V15.4075H158.534H162.438V13.5658V11.7241H158.534H154.629V10.1731V8.62222H159.119H163.61V6.87743V5.13265H157.069H150.529V13.6627ZM56.1079 8.61059C57.5895 8.95198 58.3356 10.4046 57.4419 11.2078C56.9714 11.6306 55.367 11.9179 53.4757 11.9179H51.9404V10.1731V8.42835L53.6486 8.43301C54.5883 8.43553 55.6948 8.5154 56.1079 8.61059ZM3.5248 8.96148C3.26242 9.14798 2.38624 9.65436 1.57781 10.0865L0.10796 10.872L0.0540775 13.5861L0 16.3002L0.709255 16.6777C2.10551 17.4212 2.85127 17.8422 3.51055 18.2594C3.87875 18.4925 4.25221 18.6388 4.34026 18.5847C4.4285 18.5307 4.50054 17.3971 4.50054 16.0655V13.6447L5.10672 13.3143C5.64144 13.0231 7.59253 11.8607 8.40506 11.3491C8.6569 11.1907 8.64323 11.1231 8.30744 10.8664C8.09269 10.7022 7.52166 10.3738 7.03848 10.1367C6.55529 9.8994 5.79586 9.46165 5.35075 9.16368C4.40468 8.53052 4.16748 8.50435 3.5248 8.96148ZM17.6783 9.24142C17.1414 9.57778 16.2629 10.0824 15.726 10.3625C15.1892 10.6427 14.7499 10.9862 14.7499 11.1258C14.7499 11.2652 15.3209 11.7118 16.0189 12.1182C16.7168 12.5245 17.5795 13.0383 17.9358 13.2599C18.6981 13.7337 19.1991 13.7715 19.5267 13.3795C19.6569 13.2236 19.953 13.0394 20.185 12.9702C20.6832 12.8215 23.2422 11.2933 23.2422 11.1444C23.2422 11.0116 22.7389 10.703 21.1318 9.84977C20.4136 9.46844 19.6872 9.03631 19.5175 8.88936C19.0693 8.50086 18.768 8.55844 17.6783 9.24142ZM32.4073 9.16698C31.93 9.4667 31.2758 9.84609 30.9536 10.0101C29.957 10.5178 29.1015 11.0411 29.1017 11.1425C29.1021 11.2522 30.1259 11.8774 32.011 12.9187L33.2963 13.6288L33.3508 16.1659C33.3807 17.5615 33.4558 18.7032 33.5177 18.7032C33.5796 18.7032 34.0206 18.4415 34.498 18.1216C34.9753 17.8017 35.4157 17.54 35.4768 17.54C35.5379 17.54 36.1047 17.2283 36.736 16.8475L37.8841 16.1548V13.5788V11.0027L36.664 10.3629C35.993 10.0111 35.0766 9.47561 34.6278 9.1728C33.6179 8.49155 33.484 8.49117 32.4073 9.16698ZM102.942 12.4995C103.056 12.7661 103.299 13.3987 103.48 13.905L103.811 14.8259H101.884H99.9585L100.092 14.2928C100.166 13.9995 100.563 13.0313 100.974 12.1409C101.386 11.2506 101.728 10.3782 101.734 10.2022C101.744 9.92499 102.241 10.8701 102.942 12.4995ZM10.2804 13.4902C9.75504 13.8178 8.87653 14.3263 8.32814 14.6202L7.33131 15.1547L7.27724 17.7571L7.22335 20.3594L8.5462 21.124C9.27381 21.5445 10.1767 22.0561 10.5525 22.2606C10.9283 22.4653 11.5417 22.8391 11.9156 23.0913C12.2895 23.3436 12.6801 23.5498 12.7836 23.5498C12.8872 23.5498 13.306 23.7798 13.7144 24.0609L14.4571 24.5719V28.6935V32.815L15.4016 33.4168C15.9209 33.7477 16.3964 34.0185 16.4581 34.0185C16.52 34.0185 17.0374 34.3239 17.608 34.6971C18.8032 35.4787 18.992 35.5072 19.6981 35.0125C19.9831 34.8126 20.7433 34.3787 21.3876 34.048C23.4002 33.0149 23.2412 33.4658 23.2494 28.7629L23.2565 24.6161L24.1043 24.083C24.5707 23.7896 25.011 23.5498 25.0828 23.5498C25.1546 23.5498 25.7425 23.2009 26.3891 22.7744C27.0356 22.3479 27.6192 21.9989 27.6857 21.9989C27.7521 21.9989 28.4048 21.6399 29.1361 21.2012L30.4656 20.4036V17.8227C30.4656 15.2654 30.4609 15.2381 29.9511 14.8401C29.6683 14.619 29.3586 14.4382 29.2632 14.4382C29.1675 14.4382 28.533 14.0892 27.8529 13.6627C27.1729 13.2362 26.4687 12.8872 26.2881 12.8872C25.9102 12.8872 25.1441 13.2878 22.9494 14.6324C22.0904 15.1588 21.0801 15.733 20.7043 15.9084C20.3285 16.0837 19.7752 16.4007 19.4749 16.6126L18.9289 16.9978L18.1613 16.4935C17.7392 16.2161 17.3351 15.9891 17.2634 15.9891C17.1918 15.9891 16.6715 15.6849 16.1077 15.3133C15.5437 14.9414 14.8756 14.5589 14.6232 14.463C14.3708 14.367 13.683 13.9733 13.095 13.5879C12.5067 13.2025 11.8479 12.889 11.6308 12.8909C11.4135 12.8929 10.8059 13.1627 10.2804 13.4902ZM57.7294 15.6157C58.4164 15.9461 58.5888 16.1397 58.695 16.7015C58.8073 17.2963 58.7442 17.4644 58.2095 17.9958L57.5951 18.6063L54.7677 18.673L51.9404 18.7396V16.9766V15.2136H54.4166C56.5235 15.2136 57.0178 15.2737 57.7294 15.6157ZM0.0566155 26.2979L0.10796 33.1171L1.76738 34.041C2.68006 34.5493 3.86606 35.1982 4.40293 35.4828C4.9398 35.7676 5.64261 36.1964 5.96473 36.4357C6.28686 36.6749 6.77004 36.9387 7.03848 37.0217C7.30691 37.1047 7.57047 37.2357 7.62415 37.3129C7.67784 37.39 8.33673 37.7811 9.08835 38.1816C9.83997 38.5823 10.688 39.0745 10.9731 39.2754C11.2581 39.4762 11.5437 39.6406 11.6075 39.6406C11.6716 39.6406 11.7239 38.4288 11.7239 36.9475V34.2545L11.189 34.1211C10.8948 34.0478 10.6093 33.9251 10.5545 33.8485C10.4518 33.7047 8.87633 32.7559 8.0146 32.3187C7.74617 32.1824 6.86765 31.6939 6.06235 31.2329L4.59815 30.3946L4.54564 26.134L4.49332 21.8735L3.86235 21.5458C2.99223 21.0938 1.70784 20.3691 0.918147 19.8844C0.554636 19.6613 0.200497 19.4787 0.131192 19.4787C0.0620818 19.4787 0.028503 22.5474 0.0566155 26.2979ZM36.829 19.9633C36.4334 20.2299 36.0537 20.448 35.9854 20.448C35.9169 20.448 35.3085 20.7752 34.6336 21.175L33.4064 21.902L33.3514 26.1375L33.2963 30.3731L32.0797 31.016C31.4105 31.3694 30.6299 31.8407 30.3451 32.0632C30.0603 32.2856 29.7497 32.4676 29.6548 32.4676C29.5599 32.4676 28.9338 32.7949 28.2634 33.1946C27.593 33.5946 26.8039 34.0455 26.5099 34.1967L25.9754 34.4718V36.9478C25.9754 38.3097 26.0523 39.4712 26.1464 39.5288C26.2405 39.5865 26.7016 39.3752 27.1713 39.059C27.641 38.743 28.0899 38.4829 28.1687 38.4809C28.2476 38.479 28.7661 38.2 29.321 37.8611C30.3055 37.2596 30.7114 37.0318 32.845 35.8839C33.4152 35.577 34.1315 35.1511 34.4363 34.9375C34.7412 34.7238 35.6197 34.219 36.3885 33.8158L37.7865 33.0824L37.8379 26.2806C37.8664 22.4944 37.8135 19.4787 37.7186 19.4787C37.6249 19.4787 37.2245 19.6968 36.829 19.9633ZM7.27704 26.2155L7.33131 28.8811L8.23638 29.3658C8.73401 29.6323 9.62326 30.1341 10.2123 30.4805C10.8015 30.8269 11.3824 31.1106 11.5037 31.1106C11.6558 31.1106 11.7239 30.3343 11.7239 28.5985V26.0864L10.7966 25.5633C10.2866 25.2754 9.32242 24.7047 8.65397 24.2949C7.98532 23.8852 7.38988 23.5498 7.33053 23.5498C7.27118 23.5498 7.24717 24.7495 7.27704 26.2155ZM29.3918 24.1677C28.855 24.5153 27.8886 25.0748 27.2443 25.4111L26.073 26.0226L26.0185 28.5665C25.9545 31.5565 25.9352 31.5378 27.8529 30.3351C28.533 29.9086 29.1576 29.5593 29.2405 29.5587C29.3237 29.5581 29.6366 29.3619 29.9361 29.1225L30.4802 28.6873L30.4242 26.1116L30.368 23.5359L29.3918 24.1677ZM115.62 27.1385C113.612 27.6943 112.61 28.5566 111.496 30.6874C110.741 32.1313 110.945 34.5778 111.963 36.3034C113.132 38.2834 114.964 39.167 117.58 39.0133C119.49 38.901 120.806 38.3931 121.426 37.5294L121.853 36.9331L121.305 36.2513C121.004 35.8763 120.691 35.5695 120.609 35.5695C120.528 35.5695 120.104 35.8267 119.667 36.1412C117.859 37.4412 116.285 37.4123 114.821 36.052C114.064 35.3485 113.875 35.0268 113.681 34.1097C112.85 30.175 116.63 27.7197 119.855 30.0996L120.514 30.5862L121.165 29.8305C121.524 29.415 121.82 29.0033 121.824 28.9158C121.837 28.6339 121.348 28.2638 120.161 27.6555C118.716 26.9155 117.093 26.7306 115.62 27.1385ZM49.2724 27.5212C48.154 28.0824 47.7811 28.5331 47.4621 29.7095C47.1343 30.9182 47.4559 32.0153 48.3654 32.7923C49.0677 33.3922 49.8411 33.6991 51.9724 34.2233C52.5071 34.3549 53.1051 34.6775 53.421 35.0047C53.8886 35.4894 53.9301 35.6245 53.7394 36.0402C53.0276 37.5915 51.1855 37.4748 48.5577 35.7118C48.2495 35.5049 48.1241 35.5633 47.6304 36.1437C46.8782 37.0283 46.9104 37.3842 47.7919 37.9284C50.3686 39.5195 54.1076 39.3814 55.5244 37.643C55.9958 37.0647 56.1301 36.6883 56.1981 35.7569C56.2707 34.7595 56.2137 34.4896 55.7983 33.8666C55.2317 33.0161 54.5922 32.6675 52.3309 31.9764C50.1965 31.324 49.7929 31.0629 49.7929 30.3351C49.7929 29.0975 51.7942 28.7916 53.7478 29.7308L54.6556 30.1672L55.2446 29.5242C55.5685 29.1706 55.8361 28.7466 55.8393 28.5822C55.8426 28.4027 55.3574 28.0568 54.6248 27.7162C53.6689 27.2718 53.0663 27.1346 51.8428 27.082C50.469 27.0229 50.1596 27.0758 49.2724 27.5212ZM76.041 27.4756C75.9674 27.7156 75.6221 28.4818 75.2734 29.1785C74.9249 29.8753 74.5766 30.6604 74.4997 30.9233C74.3564 31.4128 73.2921 33.8284 72.1535 36.248C71.8023 36.9944 71.4524 37.8887 71.3759 38.2351L71.2367 38.8652H72.328H73.4195L73.893 37.8474C74.1532 37.2877 74.413 36.677 74.4702 36.4903C74.5628 36.1891 74.8701 36.1511 77.2192 36.1511H79.8639L80.1304 36.7811C80.2768 37.1276 80.5377 37.7384 80.7098 38.1382L81.0228 38.8652H82.2974H83.5723L83.303 38.2351C83.1549 37.8887 82.8093 37.1252 82.535 36.5388C80.8783 32.9961 80.4434 32.0235 80.4434 31.862C80.4434 31.7627 80.1521 31.0951 79.796 30.3781C79.4401 29.6614 78.9835 28.6169 78.7814 28.0572L78.414 27.0394H77.2944C76.303 27.0394 76.1593 27.0894 76.041 27.4756ZM139.294 28.5419C138.901 29.3681 138.467 30.3543 138.33 30.7331C138.192 31.1119 137.817 31.9407 137.497 32.5748C137.177 33.209 136.849 33.9458 136.768 34.2124C136.687 34.479 136.29 35.395 135.885 36.248C135.48 37.101 135.094 38.0389 135.026 38.332L134.904 38.8652H136.064H137.223L137.776 37.5104L138.328 36.1559L140.963 36.1582L143.599 36.1606L143.941 36.8424C144.128 37.2173 144.285 37.6731 144.288 37.8553C144.302 38.5951 144.763 38.8652 146.012 38.8652C146.671 38.8652 147.211 38.8105 147.211 38.7438C147.211 38.6769 146.96 38.1318 146.653 37.5321C146.347 36.9325 146.029 36.2238 145.948 35.9572C145.867 35.6906 145.471 34.7746 145.068 33.9216C144.666 33.0686 144.276 32.1811 144.203 31.9494C144.13 31.7177 143.766 30.9086 143.395 30.1511C143.024 29.3937 142.72 28.6919 142.72 28.5917C142.72 28.4916 142.572 28.1014 142.391 27.7245C142.076 27.0685 142.019 27.0394 141.035 27.0394H140.008L139.294 28.5419ZM57.9924 33.0492V38.8652H59.1638H60.3351L60.3433 34.9394C60.3513 31.1375 60.3621 31.032 60.685 31.5952C61.2222 32.5324 62.9021 35.0398 63.3732 35.6078C63.7918 36.1127 63.8183 36.1185 64.1324 35.774C64.3113 35.5774 65.1113 34.426 65.9098 33.2152L67.3619 31.0136L67.3627 34.9394L67.3632 38.8652H68.5346H69.706V33.0492V27.2333H68.4565H67.2071L66.1931 28.8327C64.7433 31.1195 63.9614 32.2637 63.8492 32.2637C63.7289 32.2637 62.5006 30.479 62.1396 29.7799C61.9943 29.4988 61.633 28.9635 61.3362 28.5903C61.0397 28.2171 60.7396 27.7592 60.6697 27.5725C60.5665 27.2969 60.3033 27.2333 59.2674 27.2333H57.9924V33.0492ZM84.9336 33.0492V38.8652H86.0073H87.081V36.9265V34.9879L88.3012 34.9908L89.5214 34.9937L90.3999 36.2639C92.1636 38.8138 92.2276 38.8652 93.6414 38.8652C94.3282 38.8652 94.8901 38.8119 94.8901 38.7467C94.8901 38.6818 94.4797 38.0492 93.9782 37.3412C92.439 35.1687 92.1569 34.745 92.1569 34.6058C92.1569 34.5321 92.3986 34.3518 92.6938 34.205C94.0032 33.5544 94.5279 32.6121 94.5346 30.8985C94.5406 29.2855 93.9864 28.3397 92.6735 27.723C91.6851 27.2585 91.4584 27.2333 88.2825 27.2333H84.9336V33.0492ZM95.671 28.2995V29.3658H97.5256H99.3803V34.1155V38.8652H100.552H101.723V34.1155V29.3658H103.48H105.237V28.2995V27.2333H100.454H95.671V28.2995ZM123.393 33.0492V38.8652H124.662H125.931V36.4419V34.0185H128.469H131.007V36.4419V38.8652H132.276H133.545V33.0492V27.2333H132.276H131.007V29.5596V31.886H128.469H125.931V29.5596V27.2333H124.662H123.393V33.0492ZM148.772 33.0492V38.8652H149.846H150.92V33.0492V27.2333H149.846H148.772V33.0492ZM153.458 33.0492V38.8652H154.625H155.793L155.845 34.9394L155.898 31.0136L156.289 31.6251C156.503 31.9614 157.25 32.9554 157.948 33.834C158.646 34.7126 159.437 35.718 159.705 36.0681C162.034 39.1061 161.756 38.8652 162.932 38.8652H164V33.0492V27.2333H162.829H161.657V31.0415V34.8498L160.936 33.9011C160.54 33.3792 160.166 32.9087 160.105 32.8554C160.045 32.802 159.737 32.4095 159.421 31.983C159.105 31.5565 158.792 31.1639 158.724 31.1106C158.657 31.0573 157.96 30.1631 157.177 29.1234L155.753 27.2333H154.605H153.458V33.0492ZM91.8814 30.0067C92.4212 30.6304 92.4693 31.0985 92.0722 31.861C91.7067 32.563 90.7062 32.8554 88.669 32.8554H87.081V31.0935V29.3315L89.2459 29.3972C91.3393 29.4606 91.4262 29.4805 91.8814 30.0067ZM141.838 32.1004C142.889 34.1643 142.95 34.0185 141.035 34.0185H139.359L139.49 33.4854C139.562 33.1923 139.936 32.298 140.32 31.4983C140.962 30.1616 141.03 30.085 141.162 30.5495C141.241 30.8273 141.545 31.5252 141.838 32.1004ZM77.515 30.5379C77.515 30.6496 77.8225 31.393 78.1983 32.19C78.5741 32.9872 78.8816 33.7246 78.8816 33.8289C78.8816 33.9375 78.1793 34.0185 77.2389 34.0185H75.5963L75.9471 33.0977C76.5597 31.4888 77.1368 30.3351 77.3289 30.3351C77.4312 30.3351 77.515 30.4264 77.515 30.5379ZM14.4572 38.7198L14.4574 41.2885L15.4613 41.8701C16.0136 42.19 16.87 42.6859 17.3646 42.972C18.3042 43.5154 19.1075 43.6426 19.6821 43.3386C19.8685 43.2399 20.7459 42.7477 21.6316 42.2446L23.2422 41.3302V38.7362V36.1425L21.7292 36.9457C20.897 37.3875 20.0844 37.858 19.9234 37.9914C19.1901 38.5982 18.8092 38.6746 18.3337 38.3103C18.0806 38.1167 17.3552 37.6779 16.7215 37.3358C16.0878 36.9936 15.3875 36.5871 15.1649 36.4324C14.9426 36.2777 14.6923 36.1511 14.6087 36.1511C14.5254 36.1511 14.4571 37.3071 14.4572 38.7198Z" fill="#F0B90B"/>
</g>
<defs>
<clipPath id="clip0_472_180">
<rect width="164" height="43" fill="white" transform="translate(0 0.5)"/>
</clipPath>
</defs>
</svg>
